<svg width="auto" height="1em" viewBox="0 0 307 301" fill="none" xmlns="http://www.w3.org/2000/svg">
<path fill-rule="evenodd" clip-rule="evenodd" d="M26.8493 66.2362L49.218 1.92251L82.2418 17.965C104.3 6.66412 129.514 0.433661 156.242 0.912007C184.781 1.42623 211.401 9.58801 234.039 23.2867L267.565 9.93481L284.528 72.9629C299.16 96.4497 307.417 124.14 306.903 153.66C305.39 236.509 235.504 302.426 150.795 300.859C66.1096 299.346 -1.38506 230.961 0.145647 148.117C0.677807 117.67 10.4959 89.5854 26.8493 66.2362Z" fill="#FF7300"/>
<path fill-rule="evenodd" clip-rule="evenodd" d="M114.691 154.898C114.691 154.898 152.953 141.313 200.662 154.898C200.662 154.898 186.682 183.222 156.445 203.342C156.445 203.342 127.965 184.406 114.691 154.898Z" fill="#FFFFFE"/>
<path fill-rule="evenodd" clip-rule="evenodd" d="M133.33 132.59C133.33 157.41 113.209 177.537 88.383 177.537C63.5628 177.537 43.4424 157.41 43.4424 132.59C43.4424 107.77 63.5628 87.6436 88.383 87.6436C113.209 87.6436 133.33 107.77 133.33 132.59Z" fill="#FFFFFE"/>
<path fill-rule="evenodd" clip-rule="evenodd" d="M268.778 132.59C268.778 157.41 248.658 177.537 223.832 177.537C199.012 177.537 178.891 157.41 178.891 132.59C178.891 107.77 199.012 87.6436 223.832 87.6436C248.658 87.6436 268.778 107.77 268.778 132.59Z" fill="#FFFFFE"/>
<path fill-rule="evenodd" clip-rule="evenodd" d="M224.045 119.723C223.943 127.305 229.964 133.541 237.546 133.69C245.104 133.798 251.328 127.765 251.472 120.189C251.639 112.637 245.564 106.371 238.018 106.263C230.425 106.156 224.2 112.177 224.045 119.723Z" fill="#404040"/>
<path fill-rule="evenodd" clip-rule="evenodd" d="M89.7285 119.954C89.6208 127.542 95.6241 133.767 103.206 133.868C110.788 134.03 117.036 127.991 117.156 120.415C117.287 112.833 111.26 106.603 103.678 106.465C96.1204 106.345 89.854 112.367 89.7285 119.954Z" fill="#404040"/>
</svg>
