<svg width="auto" height="1em" viewBox="0 0 370 369" fill="none" xmlns="http://www.w3.org/2000/svg">
<g clip-path="url(#clip0_318:3185)">
<path d="M129.176 228.067C129.176 228.067 101.25 235.532 87.7891 261.808C75.0769 286.619 69.8492 290.019 69.165 294.076C68.5027 298.008 83.6625 288.644 83.6625 288.644C83.6625 288.644 79.4914 305.716 82.0875 330.751C84.6835 355.786 74.3998 365.273 78.0066 367.355C81.6133 369.436 124.661 345.583 139.652 326.639C139.652 326.639 135.034 343.303 140.214 338.332C145.394 333.361 167.079 315.689 176.709 286.348C186.339 257.007 173.578 243.96 173.578 243.96L135.828 222.167L129.176 228.067Z" fill="#FF7300"/>
<path d="M113.827 307.796C110.641 305.957 108.053 283.748 115.428 267.292C122.803 250.835 144.308 232.437 144.308 232.437L165.625 244.739C165.625 244.739 164.793 265.506 150.86 281.366C136.926 297.227 117.016 309.636 113.827 307.796Z" fill="#FFE539"/>
<path d="M124.003 208.97L196.062 250.558C193.425 255.126 189.082 258.46 183.988 259.826C178.893 261.192 173.465 260.479 168.896 257.843L131.287 236.137C126.719 233.5 123.385 229.157 122.019 224.062C120.653 218.967 121.367 213.538 124.003 208.97V208.97Z" fill="#009DFF"/>
<path d="M124.003 208.97L119.461 216.84L185.309 255.544C185.309 255.544 187.07 256.316 180.017 263.865C182.095 264.42 184.299 264.274 186.286 263.45C188.274 262.626 189.934 261.17 191.01 259.308L196.059 250.56L124.003 208.97Z" fill="#007FBF"/>
<path d="M286.765 8.09893C270.234 -1.44167 215.496 22.9076 192.864 49.3979L112.224 189.122C110.007 192.989 109.411 197.577 110.565 201.883C111.72 206.189 114.531 209.863 118.386 212.102L156.376 234.028L194.367 255.954C198.235 258.171 202.822 258.768 207.128 257.613C211.434 256.459 215.108 253.647 217.348 249.793L297.985 110.073C309.596 77.2181 303.296 17.6395 286.765 8.09893Z" fill="#F9F9F9"/>
<path d="M207.189 257.845C205.027 258.434 202.77 258.588 200.548 258.299C198.326 258.01 196.183 257.284 194.244 256.161L118.268 212.309C114.351 210.044 111.493 206.317 110.321 201.946C109.15 197.576 109.76 192.92 112.018 188.999L192.656 49.2782C203.372 36.7303 221.813 23.938 242.01 15.015C262.305 6.04816 279.085 3.38396 286.888 7.88728C294.691 12.3906 300.785 28.2518 303.172 50.3167C305.552 72.2685 303.697 94.632 298.213 110.151L217.555 249.908C216.438 251.851 214.947 253.553 213.167 254.915C211.388 256.277 209.356 257.273 207.189 257.845ZM261.197 8.60858C254.701 10.4073 248.351 12.6982 242.203 15.4615C222.369 24.2205 203.536 37.2867 193.05 49.5589L112.436 189.242C110.244 193.051 109.651 197.575 110.79 201.82C111.928 206.066 114.704 209.686 118.508 211.888L194.486 255.739C198.298 257.924 202.818 258.512 207.062 257.374C211.305 256.236 214.925 253.466 217.132 249.667L297.77 109.949C303.132 94.7704 305.022 71.9255 302.685 50.371C300.308 28.4561 294.313 12.7403 286.644 8.31301C281.564 5.37867 272.557 5.56276 261.197 8.60858Z" fill="#F2F2F2"/>
<path d="M286.765 8.09893C270.234 -1.44167 215.496 22.9076 192.864 49.3979L112.224 189.122C110.007 192.989 109.411 197.577 110.565 201.883C111.72 206.189 114.531 209.863 118.386 212.102L156.376 234.028L194.367 255.954C198.235 258.171 202.822 258.768 207.128 257.613C211.434 256.459 215.108 253.647 217.348 249.793L297.985 110.073C309.596 77.2181 303.296 17.6395 286.765 8.09893Z" fill="#F9F9F9"/>
<path d="M207.189 257.845C205.027 258.434 202.77 258.588 200.548 258.299C198.326 258.01 196.183 257.284 194.244 256.161L118.268 212.309C114.351 210.044 111.493 206.317 110.321 201.946C109.15 197.576 109.76 192.92 112.018 188.999L192.656 49.2782C203.372 36.7303 221.813 23.938 242.01 15.015C262.305 6.04816 279.085 3.38396 286.888 7.88728C294.691 12.3906 300.785 28.2518 303.172 50.3167C305.552 72.2685 303.697 94.632 298.213 110.151L217.555 249.908C216.438 251.851 214.947 253.553 213.167 254.915C211.388 256.277 209.356 257.273 207.189 257.845ZM261.197 8.60858C254.701 10.4073 248.351 12.6982 242.203 15.4615C222.369 24.2205 203.536 37.2867 193.05 49.5589L112.436 189.242C110.244 193.051 109.651 197.575 110.79 201.82C111.928 206.066 114.704 209.686 118.508 211.888L194.486 255.739C198.298 257.924 202.818 258.512 207.062 257.374C211.305 256.236 214.925 253.466 217.132 249.667L297.77 109.949C303.132 94.7704 305.022 71.9255 302.685 50.371C300.308 28.4561 294.313 12.7403 286.644 8.31301C281.564 5.37867 272.557 5.56276 261.197 8.60858Z" fill="#F2F2F2"/>
<path d="M101.94 115.889C100.532 115.933 99.1581 116.336 97.9492 117.059C96.7402 117.783 95.7359 118.803 95.0313 120.022L79.093 147.638C78.5486 148.581 78.1954 149.623 78.0534 150.702C77.9114 151.782 77.9834 152.879 78.2654 153.931C78.5474 154.983 79.0339 155.968 79.6969 156.832C80.36 157.696 81.1867 158.421 82.1299 158.965L117.76 179.529L137.257 145.745L137.837 144.741L158.01 109.787L101.94 115.889Z" fill="#FF3652"/>
<path d="M285.897 222.06L263.135 170.446L242.962 205.4L242.382 206.404L222.885 240.187L258.51 260.763C259.453 261.308 260.494 261.661 261.574 261.803C262.653 261.945 263.75 261.873 264.802 261.591C265.854 261.309 266.84 260.823 267.704 260.16C268.567 259.496 269.292 258.67 269.836 257.727L285.775 230.111C286.479 228.89 286.86 227.51 286.881 226.101C286.902 224.692 286.564 223.301 285.897 222.06Z" fill="#FF3652"/>
<path d="M215.238 30.1076L303.495 81.0444C305.723 50.1229 299.088 15.2176 286.766 8.10192C274.443 0.98624 240.897 12.7079 215.238 30.1076Z" fill="#FF3652"/>
<path d="M287.858 8.82414C291.029 52.1897 277.014 107.729 246.137 161.232C226.211 195.758 202.037 224.628 176.879 245.856L194.369 255.949C198.236 258.166 202.824 258.762 207.13 257.607C211.436 256.453 215.11 253.642 217.349 249.787L297.987 110.067C309.337 77.9522 303.573 20.3002 287.858 8.82414Z" fill="#F2F2F2"/>
<path d="M234.803 173.057C261.173 165.986 276.819 138.877 269.749 112.506C262.679 86.1353 235.569 70.4892 209.198 77.5597C182.828 84.6301 167.182 111.74 174.252 138.11C181.322 164.481 208.432 180.127 234.803 173.057Z" fill="#F2F2F2"/>
<path d="M235.392 168.963C261.763 161.893 277.409 134.784 270.339 108.413C263.268 82.042 236.159 66.396 209.788 73.4664C183.417 80.5368 167.771 107.646 174.842 134.017C181.912 160.388 209.021 176.034 235.392 168.963Z" fill="#007FBF"/>
<path d="M234.97 167.389C261.341 160.318 276.987 133.209 269.917 106.838C262.846 80.4673 235.737 64.8213 209.366 71.8917C182.995 78.9621 167.349 106.072 174.42 132.442C181.49 158.813 208.599 174.459 234.97 167.389Z" fill="#009DFF"/>
<path d="M232.718 158.994C253.583 153.399 265.962 131.95 260.368 111.085C254.774 90.2198 233.324 77.8404 212.459 83.4347C191.594 89.0289 179.215 110.478 184.809 131.344C190.403 152.209 211.853 164.588 232.718 158.994Z" fill="#E2F4FF"/>
<path d="M185.736 111.703C185.736 111.703 161.938 125.011 169.128 133.07C169.508 133.397 169.965 133.622 170.455 133.727C170.945 133.831 171.454 133.81 171.934 133.666C172.414 133.522 172.851 133.26 173.203 132.904C173.555 132.547 173.813 132.108 173.951 131.626C173.951 131.626 177.939 133.563 178.743 129.53C179.254 129.926 179.845 130.205 180.475 130.348C181.106 130.492 181.759 130.496 182.391 130.36C183.023 130.224 183.618 129.952 184.133 129.562C184.649 129.172 185.073 128.674 185.376 128.104C187.417 124.65 188.437 120.689 188.316 116.68C188.316 116.68 187.765 111.829 185.736 111.703Z" fill="#FF7300"/>
<path d="M254.6 137.227C254.827 135.551 255.145 133.889 255.552 132.247L258.755 120.078C258.844 119.767 258.863 119.44 258.813 119.12C258.763 118.8 258.643 118.495 258.463 118.226C258.283 117.957 258.046 117.731 257.77 117.562C257.493 117.394 257.183 117.288 256.861 117.252L252.479 116.642C250.899 116.323 249.478 115.465 248.462 114.213C248.462 114.213 242.289 105.646 236.489 101.831C230.287 97.7777 218.99 95.8141 218.99 95.8141C217.415 95.4382 216.019 94.5276 215.04 93.2373L212.611 89.7076C212.436 89.4341 212.204 89.2023 211.929 89.0286C211.655 88.855 211.346 88.7438 211.025 88.7028C210.703 88.6618 210.376 88.6922 210.067 88.7916C209.758 88.8911 209.475 89.0572 209.238 89.2782L200.29 97.0542C198.988 98.143 197.623 99.1537 196.201 100.081C196.201 100.081 186.014 106.418 181.822 112.842C170.113 130.894 175.59 155.237 194.049 167.253C212.471 179.239 236.972 174.335 248.682 156.283C253.064 149.557 254.6 137.227 254.6 137.227Z" fill="#D85700"/>
<path d="M254.601 137.227C254.828 135.551 255.146 133.889 255.554 132.247L258.756 120.078C258.845 119.767 258.865 119.44 258.814 119.12C258.764 118.8 258.644 118.495 258.464 118.226C258.284 117.957 258.047 117.731 257.771 117.562C257.494 117.394 257.185 117.288 256.863 117.251L252.481 116.642C250.9 116.323 249.48 115.464 248.463 114.213C248.463 114.213 242.29 105.646 236.491 101.831C230.288 97.7777 218.992 95.8141 218.992 95.8141C217.416 95.4382 216.02 94.5275 215.041 93.2373L212.612 89.7075C212.437 89.434 212.205 89.2022 211.931 89.0286C211.657 88.855 211.348 88.7437 211.026 88.7028C210.704 88.6618 210.377 88.6921 210.068 88.7915C209.76 88.891 209.476 89.0571 209.239 89.2782L200.291 97.0542C198.989 98.143 197.624 99.1537 196.203 100.081C196.203 100.081 186.015 106.418 181.824 112.842C170.115 130.894 175.206 152.509 197.014 164.655C218.822 176.802 236.972 174.337 248.681 156.283C253.064 149.558 254.601 137.227 254.601 137.227Z" fill="#FF7300"/>
<path d="M234.708 148.53C241.444 146.724 245.44 139.8 243.634 133.064C241.828 126.329 234.904 122.332 228.169 124.138C221.433 125.944 217.437 132.868 219.243 139.604C221.049 146.339 227.973 150.335 234.708 148.53Z" fill="#D85700"/>
<path d="M234.927 149.774C241.662 147.968 245.658 141.044 243.852 134.308C242.047 127.573 235.122 123.577 228.387 125.383C221.652 127.188 217.655 134.112 219.461 140.848C221.267 147.583 228.191 151.58 234.927 149.774Z" fill="white"/>
<path d="M208.386 134.657C215.214 132.827 219.266 125.807 217.435 118.979C215.604 112.151 208.585 108.099 201.756 109.93C194.928 111.761 190.877 118.78 192.708 125.609C194.538 132.437 201.558 136.488 208.386 134.657Z" fill="#D85700"/>
<path d="M208.613 135.904C215.442 134.073 219.493 127.054 217.662 120.226C215.831 113.397 208.812 109.346 201.984 111.177C195.155 113.008 191.104 120.027 192.935 126.855C194.766 133.684 201.785 137.735 208.613 135.904Z" fill="white"/>
<path d="M208.049 119.079C207.698 119.632 207.19 120.068 206.591 120.332C205.991 120.597 205.327 120.678 204.681 120.564C204.036 120.451 203.439 120.149 202.965 119.697C202.492 119.244 202.163 118.661 202.02 118.022C201.878 117.382 201.928 116.715 202.165 116.104C202.402 115.493 202.815 114.966 203.351 114.59C203.887 114.214 204.523 114.005 205.178 113.99C205.833 113.975 206.478 114.155 207.031 114.506C207.769 114.98 208.291 115.726 208.481 116.583C208.672 117.439 208.517 118.336 208.049 119.079Z" fill="#404040"/>
<path d="M233.204 133.392C232.853 133.945 232.345 134.381 231.746 134.646C231.147 134.91 230.482 134.991 229.837 134.878C229.192 134.765 228.594 134.463 228.121 134.01C227.647 133.558 227.318 132.975 227.176 132.335C227.033 131.696 227.084 131.028 227.321 130.418C227.557 129.807 227.97 129.28 228.506 128.904C229.043 128.527 229.678 128.318 230.333 128.303C230.988 128.289 231.633 128.468 232.186 128.82C232.924 129.293 233.446 130.04 233.637 130.896C233.827 131.753 233.672 132.65 233.204 133.392Z" fill="#404040"/>
<path d="M204.653 138.458L206.976 144.097C207.982 146.374 208.624 148.796 208.877 151.273C212.343 149.653 215.899 148.235 219.527 147.024C218.864 147.038 204.653 138.458 204.653 138.458Z" fill="#D85700"/>
<path d="M205.639 140.151L207.343 143.482C208.359 145.362 209.163 147.348 209.742 149.404C211.773 148.011 219.382 146.495 219.382 146.495C218.711 146.54 205.639 140.151 205.639 140.151Z" fill="#F2F2F2"/>
<path d="M218.037 146.336L210.206 147.328L207.362 140.766L218.037 146.336Z" fill="#404040"/>
<path d="M208.288 142.202C203.907 139.111 203.733 138.118 203.733 138.118C207.358 138.04 210.964 137.569 214.488 136.712C215.892 140.085 217.525 143.358 219.376 146.508C215.807 146.644 208.288 142.202 208.288 142.202Z" fill="white"/>
<path d="M252.836 146.01C255.394 142.893 257.454 139.398 258.94 135.65L254.661 136.797C254.64 136.946 254.619 137.094 254.603 137.228C254.193 140.188 253.603 143.121 252.836 146.01Z" fill="#5EC0FF"/>
<path d="M203.039 155.09C211.069 159.723 220.484 161.353 229.604 159.69C238.724 158.027 246.958 153.179 252.836 146.01C253.602 143.122 254.192 140.189 254.602 137.228C254.618 137.094 254.64 136.945 254.66 136.797L198.337 151.898C199.826 153.074 201.397 154.14 203.039 155.09Z" fill="#D85700"/>
<path d="M243.273 142.526C243.669 141.596 243.953 140.621 244.117 139.623L221.892 145.582C223.268 147.262 225.054 148.558 227.078 149.346C229.101 150.133 231.294 150.386 233.444 150.078C235.593 149.771 237.627 148.915 239.349 147.592C241.071 146.269 242.422 144.524 243.273 142.526Z" fill="#B8B8B8"/>
<path d="M242.143 87.3389C237.694 84.7705 232.782 83.1037 227.689 82.4337C222.596 81.7637 217.421 82.1035 212.459 83.4339C207.497 84.7642 202.846 87.059 198.771 90.1871C194.696 93.3152 191.278 97.2154 188.71 101.665C188.592 101.859 188.495 102.072 188.379 102.275L242.732 87.7018C242.536 87.5823 242.344 87.4552 242.143 87.3389Z" fill="white"/>
<path d="M243.354 87.7881L187.89 102.659L188.301 101.909C188.367 101.786 188.432 101.662 188.503 101.539C193.729 92.5072 202.325 85.9174 212.404 83.2151C222.483 80.5128 233.222 81.9187 242.265 87.1243C242.388 87.1952 242.505 87.2677 242.622 87.3417L243.354 87.7881ZM188.867 101.891L242.122 87.6121L242.018 87.5508C237.597 84.9988 232.717 83.3427 227.656 82.677C222.595 82.0112 217.453 82.3489 212.523 83.6708C207.592 84.9927 202.971 87.2729 198.922 90.3811C194.873 93.4893 191.476 97.3647 188.925 101.786L188.867 101.891Z" fill="#F2F2F2"/>
<path d="M215.025 93.234L212.595 89.7043C212.421 89.4308 212.188 89.199 211.914 89.0253C211.64 88.8517 211.331 88.7405 211.01 88.6995C210.688 88.6585 210.361 88.6889 210.052 88.7883C209.743 88.8877 209.46 89.0539 209.222 89.2749L200.275 97.0509C198.973 98.1397 197.608 99.1505 196.186 100.078L195.909 100.254L216.574 94.7138C215.976 94.3138 215.452 93.8131 215.025 93.234Z" fill="#FFA45E"/>
<path d="M282.735 69.0612L303.494 81.0424C305.656 51.0473 299.477 17.3017 287.861 8.81536C289.048 29.0392 287.322 49.3287 282.735 69.0612Z" fill="#D1264B"/>
<path d="M242.383 206.408L222.886 240.191L247.712 254.52L268.856 183.481L263.142 170.44L242.968 205.394L242.383 206.408Z" fill="#D1264B"/>
<path d="M60.5989 131.277C58.1764 133.484 56.4997 136.389 55.8009 139.59C55.7578 139.817 55.6516 140.027 55.4946 140.196C55.3376 140.365 55.1361 140.486 54.9133 140.546C54.6905 140.606 54.4553 140.601 54.2348 140.534C54.0143 140.466 53.8174 140.337 53.6666 140.163C51.4599 137.74 48.5548 136.063 45.3533 135.365C45.1267 135.321 44.9168 135.215 44.7478 135.058C44.5787 134.901 44.4574 134.7 44.3977 134.477C44.3379 134.254 44.3422 134.019 44.41 133.798C44.4778 133.578 44.6064 133.381 44.7811 133.23C47.2036 131.024 48.8803 128.118 49.5791 124.917C49.6222 124.69 49.7284 124.48 49.8854 124.311C50.0424 124.142 50.2439 124.021 50.4667 123.961C50.6895 123.902 50.9247 123.906 51.1452 123.974C51.3657 124.041 51.5626 124.17 51.7133 124.345C53.92 126.767 56.8251 128.444 60.0267 129.143C60.2533 129.186 60.4632 129.292 60.6322 129.449C60.8012 129.606 60.9226 129.807 60.9823 130.03C61.0421 130.253 61.0378 130.488 60.97 130.709C60.9022 130.929 60.7735 131.126 60.5989 131.277Z" fill="#FFE539"/>
<path d="M47.9381 148.006C46.242 149.551 45.0683 151.585 44.5796 153.826C44.5494 153.984 44.4751 154.131 44.3652 154.25C44.2554 154.368 44.1143 154.453 43.9584 154.495C43.8024 154.537 43.6378 154.534 43.4834 154.486C43.3291 154.439 43.1912 154.349 43.0858 154.226C41.5414 152.53 39.5077 151.356 37.2665 150.868C37.1079 150.838 36.9609 150.763 36.8426 150.653C36.7242 150.543 36.6393 150.402 36.5975 150.246C36.5556 150.091 36.5586 149.926 36.6061 149.772C36.6536 149.617 36.7437 149.479 36.866 149.374C38.5621 147.83 39.7358 145.796 40.2245 143.555C40.2547 143.396 40.329 143.249 40.4388 143.131C40.5487 143.012 40.6898 142.927 40.8457 142.886C41.0017 142.844 41.1663 142.847 41.3207 142.894C41.475 142.942 41.6129 143.032 41.7183 143.154C43.2627 144.85 45.2964 146.024 47.5376 146.513C47.6962 146.543 47.8432 146.617 47.9615 146.727C48.0799 146.837 48.1648 146.978 48.2066 147.134C48.2485 147.29 48.2455 147.454 48.198 147.609C48.1504 147.763 48.0604 147.901 47.9381 148.006Z" fill="#FFE539"/>
<path d="M60.7391 195.75C59.043 197.294 57.8691 199.327 57.3801 201.568C57.35 201.727 57.2757 201.874 57.1658 201.992C57.0559 202.11 56.9149 202.195 56.7589 202.237C56.6029 202.279 56.4383 202.276 56.284 202.228C56.1296 202.181 55.9918 202.091 55.8863 201.969C54.342 200.273 52.3084 199.1 50.0675 198.612C49.9088 198.581 49.762 198.507 49.6437 198.397C49.5254 198.287 49.4405 198.145 49.3986 197.989C49.3568 197.833 49.3597 197.669 49.4071 197.514C49.4545 197.36 49.5444 197.222 49.6666 197.116C51.3626 195.572 52.5364 193.538 53.0251 191.297C53.0558 191.139 53.1304 190.992 53.2403 190.874C53.3502 190.756 53.4911 190.672 53.6468 190.63C53.8026 190.588 53.9669 190.591 54.1211 190.638C54.2753 190.685 54.4131 190.775 54.5189 190.896C56.0633 192.592 58.097 193.766 60.3381 194.255C60.4968 194.285 60.6437 194.36 60.762 194.47C60.8803 194.58 60.9652 194.721 61.007 194.877C61.0489 195.033 61.0459 195.198 60.9985 195.352C60.9511 195.507 60.8612 195.645 60.7391 195.75Z" fill="#FFE539"/>
<path d="M29.3525 138.762C31.4405 138.202 32.6793 136.055 32.1195 133.967C31.5597 131.879 29.4132 130.64 27.3251 131.2C25.2371 131.76 23.9983 133.907 24.5581 135.995C25.118 138.083 27.2645 139.321 29.3525 138.762Z" fill="#FFE539"/>
<path d="M317.873 239.432C315.299 241.461 313.419 244.239 312.494 247.384C312.435 247.607 312.314 247.809 312.146 247.966C311.977 248.124 311.767 248.231 311.541 248.275C311.314 248.319 311.08 248.298 310.864 248.214C310.649 248.131 310.462 247.988 310.324 247.803C308.295 245.229 305.516 243.35 302.372 242.425C302.149 242.366 301.947 242.245 301.79 242.076C301.632 241.908 301.525 241.698 301.481 241.471C301.437 241.245 301.458 241.01 301.542 240.795C301.625 240.58 301.768 240.392 301.953 240.254C304.527 238.227 306.408 235.45 307.334 232.307C307.393 232.084 307.514 231.883 307.683 231.725C307.851 231.568 308.061 231.461 308.287 231.418C308.513 231.374 308.748 231.395 308.963 231.478C309.178 231.561 309.365 231.703 309.503 231.888C311.532 234.462 314.31 236.341 317.454 237.266C317.676 237.326 317.877 237.447 318.034 237.615C318.19 237.784 318.297 237.993 318.34 238.218C318.384 238.444 318.363 238.678 318.28 238.892C318.198 239.107 318.056 239.294 317.873 239.432Z" fill="#FFE539"/>
<path d="M306.23 257.676C304.428 259.095 303.113 261.04 302.466 263.24C302.424 263.397 302.34 263.538 302.222 263.649C302.104 263.759 301.957 263.834 301.798 263.865C301.64 263.895 301.475 263.881 301.325 263.822C301.174 263.764 301.043 263.664 300.946 263.534C299.527 261.733 297.582 260.417 295.382 259.77C295.225 259.729 295.084 259.644 294.974 259.526C294.863 259.408 294.788 259.261 294.758 259.103C294.727 258.944 294.742 258.78 294.8 258.629C294.858 258.478 294.958 258.347 295.088 258.251C296.889 256.83 298.205 254.885 298.852 252.685C298.893 252.528 298.977 252.387 299.096 252.276C299.214 252.166 299.36 252.091 299.519 252.06C299.678 252.03 299.842 252.044 299.993 252.103C300.143 252.161 300.274 252.261 300.371 252.391C301.791 254.192 303.735 255.508 305.936 256.155C306.092 256.196 306.234 256.28 306.345 256.399C306.456 256.517 306.531 256.664 306.562 256.823C306.592 256.982 306.578 257.146 306.519 257.297C306.46 257.448 306.36 257.579 306.23 257.676Z" fill="#FFE539"/>
<path d="M279.959 283.915C278.263 285.459 277.089 287.493 276.6 289.734C276.57 289.893 276.495 290.04 276.385 290.158C276.275 290.276 276.134 290.361 275.978 290.403C275.822 290.445 275.657 290.442 275.503 290.394C275.349 290.347 275.211 290.257 275.105 290.135C273.561 288.439 271.527 287.265 269.286 286.776C269.127 286.746 268.98 286.672 268.862 286.562C268.743 286.452 268.658 286.311 268.617 286.155C268.575 285.999 268.578 285.835 268.625 285.68C268.673 285.526 268.763 285.388 268.885 285.283C270.581 283.738 271.755 281.705 272.244 279.463C272.274 279.305 272.349 279.158 272.459 279.04C272.569 278.921 272.71 278.836 272.866 278.795C273.022 278.753 273.186 278.756 273.341 278.803C273.495 278.85 273.633 278.94 273.739 279.062C275.283 280.759 277.317 281.932 279.558 282.421C279.717 282.451 279.864 282.525 279.982 282.635C280.101 282.745 280.186 282.886 280.227 283.042C280.269 283.198 280.266 283.363 280.219 283.517C280.171 283.672 280.081 283.809 279.959 283.915Z" fill="#FFE539"/>
<path d="M320.253 267.495C322.341 266.936 323.58 264.789 323.02 262.701C322.461 260.613 320.314 259.374 318.226 259.934C316.138 260.494 314.899 262.64 315.459 264.728C316.019 266.816 318.165 268.055 320.253 267.495Z" fill="#FFE539"/>
<path d="M285.718 303.103C287.806 302.543 289.044 300.397 288.485 298.309C287.925 296.221 285.778 294.982 283.69 295.542C281.602 296.101 280.363 298.248 280.923 300.336C281.483 302.424 283.63 303.663 285.718 303.103Z" fill="#FFE539"/>
<path d="M66.7111 185.494C68.7991 184.935 70.038 182.788 69.4782 180.7C68.9183 178.612 66.7718 177.373 64.6838 177.933C62.5958 178.493 61.357 180.639 61.9168 182.727C62.4766 184.815 64.6231 186.054 66.7111 185.494Z" fill="#FFE539"/>
</g>
<defs>
<clipPath id="clip0_318:3185">
<rect width="369.134" height="368.307" fill="white"/>
</clipPath>
</defs>
</svg>
